<?xml version="1.0" encoding="UTF-8" standalone="no" ?>
<!DOCTYPE svg PUBLIC "-//W3C//DTD SVG 1.1//EN" "http://www.w3.org/Graphics/SVG/1.1/DTD/svg11.dtd">
<svg xmlns="http://www.w3.org/2000/svg" xmlns:xlink="http://www.w3.org/1999/xlink" version="1.1" width="139.2" height="139.2" xml:space="preserve">
<desc>Created with Fabric.js 1.6.0-rc.1</desc>
<defs></defs>
<g style="stroke: none; stroke-width: 1; stroke-dasharray: none; stroke-linecap: butt; stroke-linejoin: miter; stroke-miterlimit: 10; fill: none; fill-rule: nonzero; opacity: 1;" transform="translate(10.000000000000007 10.000000000000007) scale(0.4 0.4)" >
  <circle cx="148.5" cy="148.5" r="148.5" style="stroke: none; stroke-width: 1; stroke-dasharray: none; stroke-linecap: butt; stroke-linejoin: miter; stroke-miterlimit: 10; fill: #229971; fill-rule: nonzero; opacity: 1;" transform="  matrix(1 0 0 1 0 0) "/>
  <path d="M 296.994 148.006 l -73.68 -73.676 L 74.359 223.308 l 73.686 73.686 c 0.152 0 0.302 0.006 0.454 0.006 c 82.014 0 148.5 -66.486 148.5 -148.5 C 297 148.335 296.994 148.171 296.994 148.006 z" style="stroke: none; stroke-width: 1; stroke-dasharray: none; stroke-linecap: butt; stroke-linejoin: miter; stroke-miterlimit: 10; fill: #229971; fill-rule: nonzero; opacity: 1;" transform=" matrix(1 0 0 1 0 0) " stroke-linecap="round" />
  <path d="M 93.334 66 h 110.333 C 218.762 66 231 78.238 231 93.334 v 110.333 C 231 218.762 218.762 231 203.667 231 H 93.334 C 78.238 231 66 218.762 66 203.667 V 93.334 C 66 78.238 78.238 66 93.334 66 z" style="stroke: none; stroke-width: 1; stroke-dasharray: none; stroke-linecap: butt; stroke-linejoin: miter; stroke-miterlimit: 10; fill: #29bb88; fill-rule: nonzero; opacity: 1;" transform=" matrix(1 0 0 1 0 0) " stroke-linecap="round" />
  <polygon points="201,134.5 162.5,134.5 162.5,96 134.5,96 134.5,134.5 96,134.5 96,162.5 134.5,162.5 134.5,201 162.5,201 162.5,162.5 201,162.5 " style="stroke: none; stroke-width: 1; stroke-dasharray: none; stroke-linecap: butt; stroke-linejoin: miter; stroke-miterlimit: 10; fill: #ECF0F1; fill-rule: nonzero; opacity: 1;" transform="  matrix(1 0 0 1 0 0) "/>
</g>
</svg>